<mxfile host="Electron" agent="Mozilla/5.0 (Windows NT 10.0; Win64; x64) AppleWebKit/537.36 (KHTML, like Gecko) draw.io/27.0.9 Chrome/134.0.6998.205 Electron/35.4.0 Safari/537.36" version="27.0.9">
  <diagram name="Page-1" id="UVtNH7RFG7l1vk-6G_Dw">
    <mxGraphModel dx="1188" dy="708" grid="1" gridSize="10" guides="1" tooltips="1" connect="1" arrows="0" fold="1" page="1" pageScale="1" pageWidth="850" pageHeight="1100" math="0" shadow="0">
      <root>
        <mxCell id="0" />
        <mxCell id="1" parent="0" />
        <mxCell id="GgbhM68Y0tYH9--h7S90-2" value="&lt;font style=&quot;font-size: 23px;&quot;&gt;High Level Architecture&lt;/font&gt;" style="text;html=1;align=center;verticalAlign=middle;resizable=0;points=[];autosize=1;strokeColor=none;fillColor=none;strokeWidth=10;" parent="1" vertex="1">
          <mxGeometry x="10" y="10" width="260" height="40" as="geometry" />
        </mxCell>
        <mxCell id="GgbhM68Y0tYH9--h7S90-3" value="" style="rounded=0;whiteSpace=wrap;html=1;fillColor=none;strokeColor=#B9B9B9;" parent="1" vertex="1">
          <mxGeometry x="60" y="140" width="150" height="430" as="geometry" />
        </mxCell>
        <mxCell id="GgbhM68Y0tYH9--h7S90-1" value="&lt;font style=&quot;font-size: 18px;&quot;&gt;Sources&lt;/font&gt;" style="rounded=0;whiteSpace=wrap;html=1;" parent="1" vertex="1">
          <mxGeometry x="85" y="110" width="100" height="40" as="geometry" />
        </mxCell>
        <mxCell id="GgbhM68Y0tYH9--h7S90-5" value="" style="rounded=0;whiteSpace=wrap;html=1;fillColor=none;strokeColor=#B9B9B9;" parent="1" vertex="1">
          <mxGeometry x="220" y="140" width="400" height="430" as="geometry" />
        </mxCell>
        <mxCell id="GgbhM68Y0tYH9--h7S90-7" value="Ad-hoc SQL Queries" style="rounded=0;whiteSpace=wrap;html=1;fillColor=none;strokeColor=#B9B9B9;" parent="1" vertex="1">
          <mxGeometry x="641" y="140" width="160" height="430" as="geometry" />
        </mxCell>
        <mxCell id="GgbhM68Y0tYH9--h7S90-11" value="&lt;h3&gt;&lt;font style=&quot;font-size: 12px;&quot;&gt;Bronze&lt;/font&gt;&lt;/h3&gt;" style="rounded=0;whiteSpace=wrap;html=1;fillColor=#ffe6cc;strokeColor=#d79b00;" parent="1" vertex="1">
          <mxGeometry x="230" y="160" width="110" height="20" as="geometry" />
        </mxCell>
        <mxCell id="GgbhM68Y0tYH9--h7S90-12" value="&lt;h3&gt;&lt;font style=&quot;font-size: 12px;&quot;&gt;Silver&lt;/font&gt;&lt;/h3&gt;" style="rounded=0;whiteSpace=wrap;html=1;fillColor=#f5f5f5;strokeColor=#666666;fontColor=#333333;" parent="1" vertex="1">
          <mxGeometry x="370" y="160" width="110" height="20" as="geometry" />
        </mxCell>
        <mxCell id="GgbhM68Y0tYH9--h7S90-13" value="&lt;h3&gt;&lt;font style=&quot;font-size: 12px;&quot;&gt;Gold&lt;/font&gt;&lt;/h3&gt;" style="rounded=0;whiteSpace=wrap;html=1;fillColor=#fff2cc;strokeColor=#d6b656;" parent="1" vertex="1">
          <mxGeometry x="500" y="160" width="110" height="20" as="geometry" />
        </mxCell>
        <mxCell id="GgbhM68Y0tYH9--h7S90-15" value="&lt;h3&gt;&lt;br&gt;&lt;/h3&gt;" style="rounded=0;whiteSpace=wrap;html=1;fillColor=none;strokeColor=#d79b00;" parent="1" vertex="1">
          <mxGeometry x="230" y="190" width="110" height="360" as="geometry" />
        </mxCell>
        <mxCell id="GgbhM68Y0tYH9--h7S90-16" value="&lt;h3&gt;&lt;br&gt;&lt;/h3&gt;" style="rounded=0;whiteSpace=wrap;html=1;fillColor=none;strokeColor=#666666;fontColor=#333333;" parent="1" vertex="1">
          <mxGeometry x="370" y="190" width="110" height="360" as="geometry" />
        </mxCell>
        <mxCell id="GgbhM68Y0tYH9--h7S90-17" value="&lt;h3&gt;&lt;br&gt;&lt;/h3&gt;" style="rounded=0;whiteSpace=wrap;html=1;fillColor=none;strokeColor=#d6b656;" parent="1" vertex="1">
          <mxGeometry x="500" y="190" width="110" height="360" as="geometry" />
        </mxCell>
        <mxCell id="GgbhM68Y0tYH9--h7S90-4" value="&lt;h3&gt;&lt;font style=&quot;font-size: 17px;&quot;&gt;Data Warehouse&lt;/font&gt;&lt;/h3&gt;" style="rounded=0;whiteSpace=wrap;html=1;" parent="1" vertex="1">
          <mxGeometry x="350" y="110" width="150" height="40" as="geometry" />
        </mxCell>
        <mxCell id="GgbhM68Y0tYH9--h7S90-6" value="&lt;h3&gt;&lt;font style=&quot;font-size: 17px;&quot;&gt;Consume&lt;/font&gt;&lt;/h3&gt;" style="rounded=0;whiteSpace=wrap;html=1;" parent="1" vertex="1">
          <mxGeometry x="670" y="110" width="100" height="40" as="geometry" />
        </mxCell>
        <mxCell id="GgbhM68Y0tYH9--h7S90-18" value="CRM" style="image;aspect=fixed;html=1;points=[];align=center;fontSize=12;image=img/lib/azure2/general/Folder_Blank.svg;" parent="1" vertex="1">
          <mxGeometry x="85" y="200" width="44.36" height="36" as="geometry" />
        </mxCell>
        <mxCell id="GgbhM68Y0tYH9--h7S90-19" value="" style="image;aspect=fixed;html=1;points=[];align=center;fontSize=12;image=img/lib/azure2/general/File.svg;" parent="1" vertex="1">
          <mxGeometry x="117.33" y="210" width="21.1" height="26" as="geometry" />
        </mxCell>
        <mxCell id="GgbhM68Y0tYH9--h7S90-20" value="ERP&lt;div&gt;&lt;br&gt;&lt;/div&gt;" style="image;aspect=fixed;html=1;points=[];align=center;fontSize=12;image=img/lib/azure2/general/Folder_Blank.svg;" parent="1" vertex="1">
          <mxGeometry x="85" y="290" width="44.36" height="36" as="geometry" />
        </mxCell>
        <mxCell id="GgbhM68Y0tYH9--h7S90-21" value="" style="image;aspect=fixed;html=1;points=[];align=center;fontSize=12;image=img/lib/azure2/general/File.svg;" parent="1" vertex="1">
          <mxGeometry x="117.33" y="300" width="21.1" height="26" as="geometry" />
        </mxCell>
        <mxCell id="GgbhM68Y0tYH9--h7S90-30" value="" style="endArrow=none;html=1;rounded=0;entryX=0.182;entryY=0.593;entryDx=0;entryDy=0;entryPerimeter=0;" parent="1" edge="1">
          <mxGeometry width="50" height="50" relative="1" as="geometry">
            <mxPoint x="94.99" y="370" as="sourcePoint" />
            <mxPoint x="175.01" y="370.11" as="targetPoint" />
          </mxGeometry>
        </mxCell>
        <mxCell id="GgbhM68Y0tYH9--h7S90-31" value="&lt;b&gt;Object Type: &lt;/b&gt;CSV Files&lt;div&gt;&lt;b&gt;Interface&lt;/b&gt;: Files in Folder&lt;/div&gt;&lt;div&gt;&lt;br&gt;&lt;/div&gt;" style="text;html=1;align=left;verticalAlign=middle;resizable=0;points=[];autosize=1;strokeColor=none;fillColor=none;" parent="1" vertex="1">
          <mxGeometry x="70" y="373" width="160" height="60" as="geometry" />
        </mxCell>
        <mxCell id="GgbhM68Y0tYH9--h7S90-32" value="" style="html=1;verticalLabelPosition=bottom;align=center;labelBackgroundColor=#ffffff;verticalAlign=top;strokeWidth=2;strokeColor=#d79b00;shadow=0;dashed=0;shape=mxgraph.ios7.icons.data;fillColor=#ffe6cc;" parent="1" vertex="1">
          <mxGeometry x="264.38" y="283" width="41.24" height="50" as="geometry" />
        </mxCell>
        <mxCell id="GgbhM68Y0tYH9--h7S90-33" value="" style="html=1;verticalLabelPosition=bottom;align=center;labelBackgroundColor=#ffffff;verticalAlign=top;strokeWidth=2;strokeColor=#666666;shadow=0;dashed=0;shape=mxgraph.ios7.icons.data;fillColor=#f5f5f5;fontColor=#333333;" parent="1" vertex="1">
          <mxGeometry x="404" y="283" width="41.24" height="50" as="geometry" />
        </mxCell>
        <mxCell id="GgbhM68Y0tYH9--h7S90-34" value="" style="html=1;verticalLabelPosition=bottom;align=center;labelBackgroundColor=#ffffff;verticalAlign=top;strokeWidth=2;strokeColor=#d6b656;shadow=0;dashed=0;shape=mxgraph.ios7.icons.data;fillColor=#fff2cc;" parent="1" vertex="1">
          <mxGeometry x="534.38" y="283" width="41.24" height="50" as="geometry" />
        </mxCell>
        <mxCell id="GgbhM68Y0tYH9--h7S90-39" value="" style="shape=flexArrow;endArrow=classic;html=1;rounded=0;fillColor=#D4E1F5;" parent="1" edge="1">
          <mxGeometry width="50" height="50" relative="1" as="geometry">
            <mxPoint x="470" y="308" as="sourcePoint" />
            <mxPoint x="520" y="308" as="targetPoint" />
          </mxGeometry>
        </mxCell>
        <mxCell id="GgbhM68Y0tYH9--h7S90-40" value="" style="shape=flexArrow;endArrow=classic;html=1;rounded=0;fillColor=#D4E1F5;" parent="1" edge="1">
          <mxGeometry width="50" height="50" relative="1" as="geometry">
            <mxPoint x="330" y="307.55" as="sourcePoint" />
            <mxPoint x="380" y="307.55" as="targetPoint" />
          </mxGeometry>
        </mxCell>
        <mxCell id="GgbhM68Y0tYH9--h7S90-41" value="" style="shape=flexArrow;endArrow=classic;html=1;rounded=0;fillColor=#D4E1F5;" parent="1" edge="1">
          <mxGeometry width="50" height="50" relative="1" as="geometry">
            <mxPoint x="200" y="307.55" as="sourcePoint" />
            <mxPoint x="250" y="307.55" as="targetPoint" />
          </mxGeometry>
        </mxCell>
        <mxCell id="GgbhM68Y0tYH9--h7S90-42" value="" style="shape=flexArrow;endArrow=classic;html=1;rounded=0;fillColor=#D4E1F5;" parent="1" edge="1">
          <mxGeometry width="50" height="50" relative="1" as="geometry">
            <mxPoint x="600" y="308" as="sourcePoint" />
            <mxPoint x="652.31" y="308.37" as="targetPoint" />
          </mxGeometry>
        </mxCell>
        <mxCell id="GgbhM68Y0tYH9--h7S90-44" value="" style="endArrow=none;html=1;rounded=0;entryX=0.182;entryY=0.593;entryDx=0;entryDy=0;entryPerimeter=0;" parent="1" edge="1">
          <mxGeometry width="50" height="50" relative="1" as="geometry">
            <mxPoint x="244.99" y="354.79" as="sourcePoint" />
            <mxPoint x="325.01" y="354.90000000000003" as="targetPoint" />
          </mxGeometry>
        </mxCell>
        <mxCell id="GgbhM68Y0tYH9--h7S90-45" value="&lt;div style=&quot;line-height: 70%;&quot;&gt;&lt;font style=&quot;font-size: 9px; line-height: 70%; background-color: light-dark(#ffffff, var(--ge-dark-color, #121212));&quot;&gt;&lt;b&gt;Object Type: &lt;/b&gt;Table&lt;/font&gt;&lt;div&gt;&lt;font style=&quot;font-size: 9px; line-height: 70%; background-color: light-dark(#ffffff, var(--ge-dark-color, #121212));&quot;&gt;&lt;b&gt;Load:&lt;/b&gt;&amp;nbsp;&lt;/font&gt;&lt;/div&gt;&lt;div&gt;&lt;span style=&quot;background-color: light-dark(#ffffff, var(--ge-dark-color, #121212)); font-size: 9px; color: light-dark(rgb(0, 0, 0), rgb(255, 255, 255));&quot;&gt;&lt;br&gt;&lt;/span&gt;&lt;/div&gt;&lt;div&gt;&lt;span style=&quot;background-color: light-dark(#ffffff, var(--ge-dark-color, #121212)); font-size: 9px; color: light-dark(rgb(0, 0, 0), rgb(255, 255, 255));&quot;&gt;Batch Processing&lt;/span&gt;&lt;/div&gt;&lt;div&gt;&lt;span style=&quot;background-color: transparent; color: light-dark(rgb(0, 0, 0), rgb(255, 255, 255));&quot;&gt;&lt;font style=&quot;font-size: 8px;&quot;&gt;Full Load (Trunc &amp;amp; Insert)&lt;/font&gt;&amp;nbsp;&lt;/span&gt;&lt;/div&gt;&lt;div&gt;&lt;span style=&quot;background-color: transparent; color: light-dark(rgb(0, 0, 0), rgb(255, 255, 255));&quot;&gt;&lt;br&gt;&lt;/span&gt;&lt;/div&gt;&lt;div&gt;&lt;div&gt;&lt;div&gt;&lt;font style=&quot;font-size: 9px; line-height: 70%; background-color: light-dark(#ffffff, var(--ge-dark-color, #121212));&quot;&gt;No &lt;b&gt;transformations&lt;/b&gt;&lt;/font&gt;&lt;/div&gt;&lt;/div&gt;&lt;/div&gt;&lt;div&gt;&lt;font style=&quot;font-size: 9px; background-color: light-dark(#ffffff, var(--ge-dark-color, #121212));&quot;&gt;&lt;b&gt;&lt;br&gt;&lt;/b&gt;&lt;/font&gt;&lt;/div&gt;&lt;div&gt;&lt;font style=&quot;line-height: 70%; background-color: light-dark(#ffffff, var(--ge-dark-color, #121212)); font-size: 8px;&quot;&gt;&lt;b style=&quot;&quot;&gt;Data Model:&lt;/b&gt; None (as is)&lt;/font&gt;&lt;font style=&quot;font-size: 9px; line-height: 70%; background-color: light-dark(#ffffff, var(--ge-dark-color, #121212));&quot;&gt;&amp;nbsp;&lt;/font&gt;&lt;/div&gt;&lt;/div&gt;" style="text;html=1;align=left;verticalAlign=middle;resizable=0;points=[];autosize=1;strokeColor=none;fillColor=none;fontFamily=Helvetica;rotation=0;" parent="1" vertex="1">
          <mxGeometry x="234" y="365" width="120" height="90" as="geometry" />
        </mxCell>
        <mxCell id="GgbhM68Y0tYH9--h7S90-49" value="&lt;div style=&quot;line-height: 70%;&quot;&gt;&lt;font style=&quot;font-size: 9px; line-height: 70%; background-color: light-dark(#ffffff, var(--ge-dark-color, #121212));&quot;&gt;&lt;b&gt;Object Type: &lt;/b&gt;Table&lt;/font&gt;&lt;div&gt;&lt;font style=&quot;font-size: 9px; line-height: 70%; background-color: light-dark(#ffffff, var(--ge-dark-color, #121212));&quot;&gt;&lt;b&gt;Load:&lt;/b&gt;&amp;nbsp;&lt;/font&gt;&lt;/div&gt;&lt;div&gt;&lt;span style=&quot;background-color: light-dark(#ffffff, var(--ge-dark-color, #121212)); font-size: 9px; color: light-dark(rgb(0, 0, 0), rgb(255, 255, 255));&quot;&gt;&lt;br&gt;&lt;/span&gt;&lt;/div&gt;&lt;div&gt;&lt;span style=&quot;background-color: light-dark(#ffffff, var(--ge-dark-color, #121212)); font-size: 9px; color: light-dark(rgb(0, 0, 0), rgb(255, 255, 255));&quot;&gt;-Batch Processing&lt;/span&gt;&lt;/div&gt;&lt;div&gt;&lt;span style=&quot;background-color: transparent; color: light-dark(rgb(0, 0, 0), rgb(255, 255, 255));&quot;&gt;&lt;font style=&quot;font-size: 9px;&quot;&gt;-Full Load (Trunc &amp;amp; Insert)&lt;/font&gt;&amp;nbsp;&lt;/span&gt;&lt;/div&gt;&lt;div&gt;&lt;span style=&quot;background-color: transparent; color: light-dark(rgb(0, 0, 0), rgb(255, 255, 255));&quot;&gt;-&lt;font style=&quot;font-size: 10px;&quot;&gt;Truncate &amp;amp; Insert&lt;/font&gt;&lt;/span&gt;&lt;/div&gt;&lt;div&gt;&lt;span style=&quot;background-color: transparent; color: light-dark(rgb(0, 0, 0), rgb(255, 255, 255));&quot;&gt;&lt;br&gt;&lt;/span&gt;&lt;/div&gt;&lt;div&gt;&lt;div&gt;&lt;div&gt;&lt;font style=&quot;font-size: 9px; line-height: 70%; background-color: light-dark(#ffffff, var(--ge-dark-color, #121212));&quot;&gt;&lt;b&gt;Transformations:&amp;nbsp;&lt;/b&gt;&lt;/font&gt;&lt;/div&gt;&lt;/div&gt;&lt;/div&gt;&lt;div&gt;&lt;br&gt;&lt;/div&gt;&lt;div&gt;&lt;font style=&quot;font-size: 9px;&quot;&gt;&lt;span style=&quot;background-color: rgb(255, 255, 255);&quot;&gt;-Data Cleansing&lt;/span&gt;&lt;/font&gt;&lt;/div&gt;&lt;div&gt;&lt;font style=&quot;font-size: 9px;&quot;&gt;&lt;span style=&quot;background-color: rgb(255, 255, 255);&quot;&gt;-Data Standaridization&lt;/span&gt;&lt;/font&gt;&lt;/div&gt;&lt;div&gt;&lt;font style=&quot;font-size: 9px;&quot;&gt;&lt;span style=&quot;background-color: rgb(255, 255, 255);&quot;&gt;-Data Normalization&lt;/span&gt;&lt;/font&gt;&lt;/div&gt;&lt;div&gt;&lt;font style=&quot;font-size: 9px;&quot;&gt;&lt;span style=&quot;background-color: rgb(255, 255, 255);&quot;&gt;-Derived Columns&lt;/span&gt;&lt;/font&gt;&lt;/div&gt;&lt;div&gt;&lt;font style=&quot;font-size: 9px;&quot;&gt;&lt;span style=&quot;background-color: rgb(255, 255, 255);&quot;&gt;-Data Enrichment&lt;/span&gt;&lt;/font&gt;&lt;/div&gt;&lt;div&gt;&lt;br&gt;&lt;/div&gt;&lt;div&gt;&lt;font style=&quot;font-size: 9px; line-height: 70%; background-color: light-dark(#ffffff, var(--ge-dark-color, #121212));&quot;&gt;&lt;b&gt;Data Model:&lt;/b&gt; None (as is)&amp;nbsp;&lt;/font&gt;&lt;/div&gt;&lt;/div&gt;" style="text;html=1;align=left;verticalAlign=middle;resizable=0;points=[];autosize=1;strokeColor=none;fillColor=none;fontFamily=Helvetica;rotation=0;" parent="1" vertex="1">
          <mxGeometry x="370" y="365" width="130" height="160" as="geometry" />
        </mxCell>
        <mxCell id="GgbhM68Y0tYH9--h7S90-50" value="" style="endArrow=none;html=1;rounded=0;entryX=0.182;entryY=0.593;entryDx=0;entryDy=0;entryPerimeter=0;" parent="1" edge="1">
          <mxGeometry width="50" height="50" relative="1" as="geometry">
            <mxPoint x="384.61" y="354.78999999999996" as="sourcePoint" />
            <mxPoint x="464.63" y="354.9" as="targetPoint" />
          </mxGeometry>
        </mxCell>
        <mxCell id="GgbhM68Y0tYH9--h7S90-51" value="" style="endArrow=none;html=1;rounded=0;entryX=0.182;entryY=0.593;entryDx=0;entryDy=0;entryPerimeter=0;" parent="1" edge="1">
          <mxGeometry width="50" height="50" relative="1" as="geometry">
            <mxPoint x="514.99" y="354.79" as="sourcePoint" />
            <mxPoint x="595.01" y="354.90000000000003" as="targetPoint" />
          </mxGeometry>
        </mxCell>
        <mxCell id="GgbhM68Y0tYH9--h7S90-52" value="&lt;div style=&quot;line-height: 70%;&quot;&gt;&lt;font style=&quot;font-size: 9px; line-height: 70%; background-color: light-dark(#ffffff, var(--ge-dark-color, #121212));&quot;&gt;&lt;b&gt;Object Type: &lt;/b&gt;Views&lt;/font&gt;&lt;div&gt;&lt;font style=&quot;font-size: 9px; line-height: 70%; background-color: light-dark(#ffffff, var(--ge-dark-color, #121212));&quot;&gt;&lt;b&gt;&lt;br&gt;&lt;/b&gt;&lt;/font&gt;&lt;/div&gt;&lt;div&gt;&lt;font style=&quot;font-size: 9px; line-height: 70%; background-color: light-dark(#ffffff, var(--ge-dark-color, #121212));&quot;&gt;&lt;b&gt;No Load&lt;/b&gt;&lt;/font&gt;&lt;/div&gt;&lt;div&gt;&lt;span style=&quot;background-color: transparent; color: light-dark(rgb(0, 0, 0), rgb(255, 255, 255));&quot;&gt;&lt;br&gt;&lt;/span&gt;&lt;/div&gt;&lt;div&gt;&lt;div&gt;&lt;div&gt;&lt;font style=&quot;font-size: 9px; line-height: 70%; background-color: light-dark(#ffffff, var(--ge-dark-color, #121212));&quot;&gt;&lt;b&gt;Transformations:&amp;nbsp;&lt;/b&gt;&lt;/font&gt;&lt;/div&gt;&lt;/div&gt;&lt;/div&gt;&lt;div&gt;&lt;br&gt;&lt;/div&gt;&lt;div&gt;&lt;font size=&quot;1&quot;&gt;&lt;span style=&quot;background-color: rgb(255, 255, 255);&quot;&gt;-Data Aggregations&lt;/span&gt;&lt;/font&gt;&lt;/div&gt;&lt;div&gt;&lt;br&gt;&lt;/div&gt;&lt;div&gt;&lt;font size=&quot;1&quot;&gt;&lt;span style=&quot;background-color: rgb(255, 255, 255);&quot;&gt;-Aggregations&lt;/span&gt;&lt;/font&gt;&lt;/div&gt;&lt;div&gt;&lt;br&gt;&lt;/div&gt;&lt;div&gt;&lt;font size=&quot;1&quot;&gt;&lt;span style=&quot;background-color: rgb(255, 255, 255);&quot;&gt;-Business Logics&lt;/span&gt;&lt;/font&gt;&lt;/div&gt;&lt;div&gt;&lt;font size=&quot;1&quot;&gt;&lt;span style=&quot;background-color: rgb(255, 255, 255);&quot;&gt;&lt;br&gt;&lt;/span&gt;&lt;/font&gt;&lt;/div&gt;&lt;div&gt;&lt;br&gt;&lt;/div&gt;&lt;div&gt;&lt;font style=&quot;font-size: 9px; line-height: 70%; background-color: light-dark(#ffffff, var(--ge-dark-color, #121212));&quot;&gt;&lt;b&gt;Data Model:&lt;/b&gt;&lt;/font&gt;&lt;/div&gt;&lt;div&gt;&lt;font style=&quot;font-size: 9px; line-height: 70%; background-color: light-dark(#ffffff, var(--ge-dark-color, #121212));&quot;&gt;&lt;br&gt;&lt;/font&gt;&lt;/div&gt;&lt;div&gt;&lt;font style=&quot;font-size: 9px; line-height: 70%; background-color: light-dark(#ffffff, var(--ge-dark-color, #121212));&quot;&gt;-Star Schema&amp;nbsp;&lt;/font&gt;&lt;/div&gt;&lt;div&gt;&lt;font style=&quot;font-size: 9px; line-height: 70%; background-color: light-dark(#ffffff, var(--ge-dark-color, #121212));&quot;&gt;&lt;br&gt;&lt;/font&gt;&lt;/div&gt;&lt;div&gt;&lt;font style=&quot;font-size: 9px; line-height: 70%; background-color: light-dark(#ffffff, var(--ge-dark-color, #121212));&quot;&gt;-Flat Table&amp;nbsp;&lt;/font&gt;&lt;/div&gt;&lt;div&gt;&lt;font style=&quot;font-size: 9px; line-height: 70%; background-color: light-dark(#ffffff, var(--ge-dark-color, #121212));&quot;&gt;&lt;br&gt;&lt;/font&gt;&lt;/div&gt;&lt;div&gt;&lt;font style=&quot;font-size: 9px; line-height: 70%; background-color: light-dark(#ffffff, var(--ge-dark-color, #121212));&quot;&gt;-Aggregated Table&amp;nbsp;&lt;/font&gt;&lt;/div&gt;&lt;/div&gt;" style="text;html=1;align=left;verticalAlign=middle;resizable=0;points=[];autosize=1;strokeColor=none;fillColor=none;fontFamily=Helvetica;rotation=0;" parent="1" vertex="1">
          <mxGeometry x="500" y="360" width="110" height="190" as="geometry" />
        </mxCell>
        <mxCell id="GgbhM68Y0tYH9--h7S90-53" value="Power BI &amp;amp; Tableau" style="text;html=1;align=center;verticalAlign=middle;resizable=0;points=[];autosize=1;strokeColor=none;fillColor=none;" parent="1" vertex="1">
          <mxGeometry x="656.25" y="250" width="130" height="30" as="geometry" />
        </mxCell>
        <mxCell id="GgbhM68Y0tYH9--h7S90-54" value="Machine Learning" style="text;html=1;align=center;verticalAlign=middle;resizable=0;points=[];autosize=1;strokeColor=none;fillColor=none;" parent="1" vertex="1">
          <mxGeometry x="660" y="433" width="120" height="30" as="geometry" />
        </mxCell>
        <mxCell id="GgbhM68Y0tYH9--h7S90-56" value="" style="image;aspect=fixed;perimeter=ellipsePerimeter;html=1;align=center;shadow=0;dashed=0;spacingTop=3;image=img/lib/active_directory/sql_server.svg;" parent="1" vertex="1">
          <mxGeometry x="702" y="290" width="38.5" height="50" as="geometry" />
        </mxCell>
        <mxCell id="GgbhM68Y0tYH9--h7S90-57" value="" style="image;aspect=fixed;html=1;points=[];align=center;fontSize=12;image=img/lib/azure2/analytics/Power_BI_Embedded.svg;" parent="1" vertex="1">
          <mxGeometry x="702" y="210" width="28.5" height="38" as="geometry" />
        </mxCell>
        <mxCell id="GgbhM68Y0tYH9--h7S90-58" value="" style="sketch=0;points=[[0,0,0],[0.25,0,0],[0.5,0,0],[0.75,0,0],[1,0,0],[0,1,0],[0.25,1,0],[0.5,1,0],[0.75,1,0],[1,1,0],[0,0.25,0],[0,0.5,0],[0,0.75,0],[1,0.25,0],[1,0.5,0],[1,0.75,0]];outlineConnect=0;fontColor=#232F3E;fillColor=#01A88D;strokeColor=#ffffff;dashed=0;verticalLabelPosition=bottom;verticalAlign=top;align=center;html=1;fontSize=12;fontStyle=0;aspect=fixed;shape=mxgraph.aws4.resourceIcon;resIcon=mxgraph.aws4.machine_learning;" parent="1" vertex="1">
          <mxGeometry x="696.75" y="386.5" width="46.5" height="46.5" as="geometry" />
        </mxCell>
        <mxCell id="GgbhM68Y0tYH9--h7S90-59" value="" style="image;aspect=fixed;html=1;points=[];align=center;fontSize=12;image=img/lib/azure2/databases/SQL_Server.svg;" parent="1" vertex="1">
          <mxGeometry x="222" y="106" width="48" height="48" as="geometry" />
        </mxCell>
      </root>
    </mxGraphModel>
  </diagram>
</mxfile>
